<svg xmlns="http://www.w3.org/2000/svg" viewBox="0 0 11.31 14.14"><title>bag</title><g id="Layer_2" data-name="Layer 2"><g id="Layer_1-2" data-name="Layer 1"><path d="M11.31,12.24,10.49,3.1a.37.37,0,0,0-.37-.34H8.43a2.78,2.78,0,0,0-5.56,0H1.19a.38.38,0,0,0-.37.34L0,12.24v0a2,2,0,0,0,2.11,1.87H9.2a2,2,0,0,0,2.11-1.87A.1.1,0,0,0,11.31,12.24ZM5.66.75a2,2,0,0,1,2,2H3.62A2,2,0,0,1,5.66.75ZM9.2,13.39H2.11A1.27,1.27,0,0,1,.75,12.29L1.52,3.5H2.87V4.71a.37.37,0,1,0,.75,0V3.5H7.69V4.71a.37.37,0,1,0,.75,0V3.5H9.78l.78,8.78A1.26,1.26,0,0,1,9.2,13.39Z"/></g></g></svg>