<svg xmlns="http://www.w3.org/2000/svg" viewBox="0 0 15.9 14.14"><title>fav</title><g id="Layer_2" data-name="Layer 2"><g id="Layer_1-2" data-name="Layer 1"><path d="M7.95,14.14a.93.93,0,0,1-.61-.23L5.53,12.36h0a33.62,33.62,0,0,1-3.95-3.7A5.92,5.92,0,0,1,0,4.78,5,5,0,0,1,1.26,1.38,4.27,4.27,0,0,1,4.44,0a4,4,0,0,1,2.5.86,5.11,5.11,0,0,1,1,1.05A5.11,5.11,0,0,1,9,.86,4,4,0,0,1,11.46,0a4.27,4.27,0,0,1,3.18,1.38A5,5,0,0,1,15.9,4.78a5.92,5.92,0,0,1-1.58,3.87,33.61,33.61,0,0,1-3.95,3.7L8.56,13.91A.93.93,0,0,1,7.95,14.14ZM4.44.93A3.35,3.35,0,0,0,1.95,2a4,4,0,0,0-1,2.76A5,5,0,0,0,2.29,8.06a33.08,33.08,0,0,0,3.83,3.59h0l1.82,1.56,1.82-1.57A33.09,33.09,0,0,0,13.6,8.06,5,5,0,0,0,15,4.78,4,4,0,0,0,14,2,3.35,3.35,0,0,0,11.46.93a3.09,3.09,0,0,0-1.93.67A4.52,4.52,0,0,0,8.45,2.84a.59.59,0,0,1-1,0A4.51,4.51,0,0,0,6.37,1.6,3.09,3.09,0,0,0,4.44.93Z"/></g></g></svg>