<svg xmlns="http://www.w3.org/2000/svg" viewBox="0 0 8.84 8.84"><title>Asset 1</title><g id="Layer_2" data-name="Layer 2"><g id="Layer_1-2" data-name="Layer 1"><g id="_4" data-name="4"><path d="M8.75,8.35,6.47,6.11a3.61,3.61,0,0,0,1-2.45A3.69,3.69,0,0,0,3.72,0,3.69,3.69,0,0,0,0,3.66,3.69,3.69,0,0,0,3.72,7.32,3.74,3.74,0,0,0,6.06,6.5L8.35,8.75a.29.29,0,0,0,.4,0A.28.28,0,0,0,8.75,8.35Zm-5-1.6A3.12,3.12,0,0,1,.57,3.66,3.12,3.12,0,0,1,3.72.56a3.12,3.12,0,0,1,3.15,3.1A3.12,3.12,0,0,1,3.72,6.75Z"/></g></g></g></svg>